<?xml version="1.0" encoding="iso-8859-1"?>
<!-- Uploaded to: SVG Repo, www.svgrepo.com, Generator: SVG Repo Mixer Tools -->
<svg xmlns="http://www.w3.org/2000/svg" xmlns:xlink="http://www.w3.org/1999/xlink" version="1.1" id="Layer_1"  viewBox="0 0 392.001 392.001" xml:space="preserve" width="512" height="512">
<g>
	<path style="fill:#F7B239;" d="M262.214,21.62v51.69h-19.52V27.53h-93.39v45.78h-19.51V21.62c0-7.47,3.79-14.05,9.54-17.94   c3.45-2.32,7.61-3.68,12.08-3.68h89.18C252.534,0,262.214,9.68,262.214,21.62z"/>
	<path style="fill:#E5A030;" d="M139.334,3.68v69.63h-9.54V21.62C129.794,14.15,133.584,7.57,139.334,3.68z"/>
	<polygon style="fill:#F24125;" points="330.061,59.001 262.211,59.001 129.791,59.001 61.941,59.001 50.39,101.931 67.211,101.931    70.67,130.932 101.831,392.001 290.17,392.001 321.331,130.932 324.791,101.931 341.611,101.931  "/>
	<polygon style="fill:#DD3B2A;" points="324.791,101.931 80.39,101.931 91.94,59.001 61.941,59.001 50.39,101.931 67.211,101.931    70.67,130.932 101.831,392.001 121,392.001 103.67,130.932 321.331,130.932  "/>
</g>















</svg>